<?xml version="1.0" encoding="utf-8"?>
<!-- Generator: Adobe Illustrator 25.4.1, SVG Export Plug-In . SVG Version: 6.00 Build 0)  -->
<svg version="1.1" id="Layer_1" xmlns="http://www.w3.org/2000/svg" xmlns:xlink="http://www.w3.org/1999/xlink" x="0px" y="0px"
	 viewBox="0 0 179 50" style="enable-background:new 0 0 179 50;" xml:space="preserve">
<style type="text/css">
	.st0{fill:#ED3032;}
	.st1{fill:#212121;}
	.st2{fill:#58585A;}
	.st3{fill:#59595B;}
	.st4{fill:#5A5A5C;}
	.st5{fill:#F7ACAD;}
</style>
<g>
	<g>
		<path class="st0" d="M54.16,0c1.07,1.72,1.2,3.68,1.32,5.6c0.57,9.19-1.01,17.91-5.87,25.88c-1.17,1.92-2.56,3.67-4.33,5.46
			c2.52-10.87,4.99-21.49,7.46-32.12c0.12-1.68,0.33-3.34,1.22-4.82C54.03,0,54.1,0,54.16,0z"/>
		<path class="st1" d="M76.22,24.17c0-2.97-0.02-5.95,0.02-8.92c0.01-0.67-0.19-0.85-0.85-0.82c-1.2,0.05-2.41,0.05-3.61,0
			c-0.6-0.03-0.8,0.12-0.78,0.76c0.05,1.87-0.01,3.74,0.03,5.61c0.01,0.61-0.14,0.81-0.77,0.8c-1.7-0.04-3.41-0.05-5.12,0
			c-0.68,0.02-0.75-0.25-0.74-0.82c0.03-1.87-0.01-3.74,0.02-5.61c0.01-0.55-0.12-0.75-0.71-0.73c-1.27,0.04-2.55,0.03-3.82,0
			c-0.49-0.01-0.7,0.09-0.7,0.65c0.02,6.01,0.02,12.03,0,18.04c0,0.57,0.22,0.65,0.71,0.64c1.27-0.03,2.55-0.04,3.82,0.01
			c0.6,0.02,0.71-0.2,0.7-0.74c-0.03-2.17,0-4.34-0.02-6.52c-0.01-0.52,0.14-0.68,0.67-0.67c1.71,0.03,3.42,0.05,5.12-0.01
			c0.75-0.03,0.87,0.25,0.85,0.92c-0.04,2.07,0.02,4.14-0.03,6.21c-0.02,0.68,0.21,0.83,0.84,0.81c1.17-0.05,2.34-0.06,3.51,0
			c0.7,0.03,0.9-0.18,0.89-0.89C76.2,29.99,76.22,27.08,76.22,24.17z M75.67,33.5c-0.07-0.05-0.09-0.09-0.07-0.13
			c0.02-0.04,0.05-0.07,0.07-0.07V33.5z"/>
		<path class="st1" d="M75.67,33.3v0.2c-0.07-0.05-0.09-0.09-0.07-0.13C75.62,33.33,75.64,33.3,75.67,33.3z"/>
		<path class="st1" d="M93.17,19.46c-0.98-3.37-2.53-4.73-6.07-4.91c-3.18-0.15-6.36-0.07-9.54-0.12c-0.57-0.01-0.65,0.21-0.65,0.7
			c0.02,5.99,0.02,11.97,0,17.95c0,0.63,0.25,0.7,0.77,0.69c1.27-0.03,2.55-0.04,3.82,0.01c0.62,0.02,0.79-0.17,0.78-0.79
			c-0.03-1.83,0.02-3.67,0.03-5.51c0.02,0,0.05-0.02,0.07-0.07c0.02-0.04,0-0.09-0.07-0.13c0.09-0.7,0.63-0.32,0.93-0.33
			c2.61-0.07,5.27,0.21,7.63-1.31c0.7-0.11,1.04-0.66,1.44-1.15C93.53,22.98,93.34,21.22,93.17,19.46z M86.42,22.47
			c-1.22,0.27-2.46,0.17-3.7,0.2c-0.36,0.01-0.46-0.15-0.45-0.48c0.01-0.53,0-1.07,0-1.6c0-1.94,0-1.95,1.97-1.86
			c0.7,0.03,1.41,0.04,2.1,0.15c0.98,0.15,1.59,0.86,1.61,1.76C87.96,21.56,87.4,22.25,86.42,22.47z"/>
		<path class="st1" d="M109.88,27.94c-1.12,3.4-3.38,5.45-6.95,5.98c-3.33,0.5-6.4-0.04-8.99-2.37c-1.44-1.3-2.29-2.93-2.67-4.83
			c-0.05-0.24-0.07-0.45,0.08-0.66c0.12-0.36,0.37-0.63,0.64-0.87c0.96-0.85,1.24-2.06,1.79-3.14c0.38-1.37,0.22-2.73-0.27-4.02
			c-0.2-0.55-0.08-0.84,0.29-1.21c3.3-3.24,9.81-3.65,13.48-0.83c1.33,1.02,2.1,2.39,2.61,3.95c0.13,0.41,0.1,0.59-0.36,0.68
			c-1.41,0.27-2.82,0.56-4.23,0.88c-0.43,0.1-0.55-0.01-0.69-0.42c-0.63-1.83-1.88-2.67-3.79-2.63c-1.95,0.04-3.46,1.05-3.98,2.8
			c-0.57,1.9-0.54,3.84,0.03,5.73c0.53,1.75,1.97,2.71,3.89,2.73c1.91,0.02,3.26-0.88,3.79-2.8c0.29-1.06,0.7-1.18,1.63-0.85
			c1.03,0.38,2.11,0.66,3.18,0.91C109.95,27.14,110.08,27.33,109.88,27.94z"/>
		<path class="st2" d="M122,26.66c0.4,0,0.8,0,1.2,0c1.41,0,1.41,0,1.25,1.37c-0.34,2.84-2.33,4.42-5.23,4.15
			c-2.81-0.26-4.69-2.42-4.47-5.14c0.22-2.74,2.41-4.64,5.16-4.48c1.39,0.08,2.6,0.54,3.54,1.62c0.33,0.38,0.32,0.6-0.17,0.79
			c-0.37,0.14-0.74,0.32-1.08,0.52c-0.38,0.23-0.63,0.17-0.94-0.15c-0.71-0.71-1.58-0.85-2.5-0.48c-0.94,0.37-1.35,1.15-1.46,2.11
			c-0.29,2.39,1.34,3.91,3.38,3.14c0.24-0.09,0.49-0.23,0.69-0.4c0.28-0.23,0.64-0.52,0.5-0.9c-0.14-0.38-0.59-0.13-0.9-0.18
			c-0.2-0.03-0.41-0.03-0.6,0c-0.86,0.14-0.86-0.38-0.88-1.01c-0.02-0.69,0.09-1.08,0.91-0.98C120.92,26.71,121.46,26.66,122,26.66z
			"/>
		<path class="st2" d="M152.86,26.12c-1.08-0.99-2.6-0.9-3.98,0.34c-0.05-1.35-0.98-0.69-1.54-0.82c-0.41-0.09-0.6,0.11-0.6,0.55
			c0.01,2.67,0,5.34,0.01,8c0,0.98,0.75,0.51,1.18,0.56c0.4,0.05,0.99,0.23,0.96-0.58c-0.04-0.92-0.01-1.84-0.01-2.8
			c1.73,1.16,3.24,1.1,4.24-0.1C154.26,29.88,154.13,27.28,152.86,26.12z M150.13,30.4c-0.87-0.03-1.39-0.63-1.38-1.6
			c0.01-0.98,0.54-1.55,1.43-1.55c0.9,0,1.48,0.67,1.45,1.65C151.59,29.82,150.99,30.43,150.13,30.4z"/>
		<path class="st2" d="M134.21,25.43c-1.99,0.02-3.48,1.47-3.49,3.37c0,1.92,1.58,3.46,3.55,3.44c1.98-0.01,3.56-1.56,3.54-3.46
			C137.8,26.85,136.25,25.41,134.21,25.43z M134.26,30.32c-0.82,0-1.33-0.61-1.31-1.55c0.02-0.87,0.56-1.47,1.31-1.47
			c0.79,0,1.34,0.65,1.32,1.57C135.56,29.75,135.05,30.32,134.26,30.32z"/>
		<path class="st3" d="M145.38,27.96c0,0.37-0.01,0.74,0,1.1c0.02,1.26-0.28,2.37-1.58,2.85c-1.41,0.53-2.83,0.53-4.11-0.4
			c-0.65-0.47-0.86-1.19-0.88-1.94c-0.03-1.1,0-2.21-0.03-3.31c-0.01-0.47,0.14-0.63,0.62-0.65c1.56-0.08,1.56-0.1,1.56,1.42
			c0,0.77-0.01,1.54,0.02,2.31c0.03,0.68,0.32,1.15,1.09,1.16c0.73,0.01,1.03-0.45,1.06-1.08c0.05-1,0.07-2.01,0.03-3.01
			c-0.02-0.61,0.15-0.82,0.78-0.8c1.78,0.06,1.4-0.13,1.44,1.44c0.01,0.3,0,0.6,0,0.9C145.39,27.96,145.38,27.96,145.38,27.96z"/>
		<path class="st4" d="M127.68,26.91c0.75-1,1.39-1.47,2.32-1.43c0.38,0.01,0.55,0.14,0.49,0.54c-0.11,0.77,0.05,1.66-1.29,1.5
			c-0.77-0.09-1.24,0.6-1.31,1.38c-0.06,0.76-0.08,1.53-0.04,2.3c0.03,0.6-0.16,0.81-0.79,0.79c-1.81-0.06-1.46,0.15-1.49-1.49
			c-0.02-1.27-0.02-2.53,0-3.8c0.01-0.47-0.25-1.19,0.68-1.06C126.9,25.72,127.97,25.15,127.68,26.91z"/>
		<path class="st5" d="M53.96,0c-0.41,1.61-0.81,3.21-1.22,4.82c-4.23,0.22-7.88,1.89-11.18,4.44c-3.96,3.06-6.9,6.94-9.35,11.25
			c-1.8,3.17-3.08,6.54-4.24,9.97c-0.22,0.64-0.38,1.29-0.5,1.95c-0.55,3.02-2.3,12.28-2.37,12.91c0-1.08,1.24-13.27,1.66-14.98
			s1.13-4.79,1.91-7.05c1.59-4.57,3.75-8.85,6.78-12.65c3.79-4.75,8.37-8.41,14.33-10.12C52.11,0,53.96,0,53.96,0z"/>
		<path class="st1" d="M75.67,33.3v0.2c-0.07-0.05-0.09-0.09-0.07-0.13C75.62,33.33,75.64,33.3,75.67,33.3z"/>
		<path class="st1" d="M75.67,33.3v0.2c-0.07-0.05-0.09-0.09-0.07-0.13C75.62,33.33,75.64,33.3,75.67,33.3z"/>
	</g>
	<g>
		<path class="st0" d="M49.81,47.92v-7.07h0.94v2.9h3.67v-2.9h0.94v7.07h-0.94v-3.33h-3.67v3.33H49.81z"/>
		<path class="st0" d="M56.81,41.85v-1h0.87v1H56.81z M56.81,47.92V42.8h0.87v5.12H56.81z"/>
		<path class="st0" d="M58.84,48.35l0.84,0.13c0.04,0.26,0.13,0.45,0.29,0.57c0.22,0.16,0.51,0.24,0.88,0.24
			c0.4,0,0.71-0.08,0.93-0.24s0.37-0.39,0.44-0.68c0.04-0.18,0.07-0.55,0.06-1.11c-0.38,0.45-0.85,0.67-1.42,0.67
			c-0.7,0-1.25-0.25-1.63-0.76c-0.39-0.51-0.58-1.12-0.58-1.83c0-0.49,0.09-0.94,0.27-1.35c0.18-0.41,0.43-0.73,0.77-0.96
			c0.34-0.22,0.73-0.34,1.18-0.34c0.6,0,1.1,0.24,1.49,0.73V42.8h0.8v4.43c0,0.8-0.08,1.36-0.24,1.69c-0.16,0.33-0.42,0.6-0.77,0.79
			S61.38,50,60.86,50c-0.61,0-1.1-0.14-1.48-0.41C59,49.31,58.82,48.9,58.84,48.35z M59.55,45.27c0,0.67,0.13,1.16,0.4,1.47
			c0.27,0.31,0.6,0.46,1,0.46c0.4,0,0.73-0.15,1-0.46c0.27-0.31,0.41-0.79,0.41-1.44c0-0.63-0.14-1.1-0.42-1.42
			c-0.28-0.32-0.61-0.48-1.01-0.48c-0.39,0-0.71,0.16-0.98,0.47C59.69,44.19,59.55,44.65,59.55,45.27z"/>
		<path class="st0" d="M64.49,47.92v-7.07h0.87v2.54c0.41-0.47,0.92-0.7,1.53-0.7c0.38,0,0.71,0.07,0.99,0.22
			c0.28,0.15,0.48,0.36,0.6,0.62c0.12,0.26,0.18,0.65,0.18,1.15v3.25h-0.87v-3.25c0-0.43-0.09-0.75-0.28-0.95
			c-0.19-0.2-0.45-0.3-0.8-0.3c-0.26,0-0.5,0.07-0.73,0.2c-0.23,0.13-0.39,0.31-0.48,0.54c-0.1,0.23-0.14,0.54-0.14,0.95v2.8H64.49z
			"/>
		<path class="st0" d="M69.64,45.8v-0.87h2.67v0.87H69.64z"/>
		<path class="st0" d="M75.16,47.15l0.13,0.77c-0.24,0.05-0.46,0.08-0.66,0.08c-0.32,0-0.56-0.05-0.73-0.15
			c-0.17-0.1-0.3-0.23-0.37-0.39c-0.07-0.16-0.11-0.5-0.11-1.02v-2.95h-0.64V42.8h0.64v-1.27l0.86-0.52v1.79h0.87v0.68h-0.87v2.99
			c0,0.25,0.02,0.41,0.05,0.48c0.03,0.07,0.08,0.13,0.15,0.17c0.07,0.04,0.17,0.06,0.3,0.06C74.88,47.18,75.01,47.17,75.16,47.15z"
			/>
		<path class="st0" d="M79.52,46.27l0.9,0.11c-0.14,0.52-0.4,0.93-0.79,1.22c-0.38,0.29-0.87,0.43-1.47,0.43
			c-0.75,0-1.34-0.23-1.78-0.69c-0.44-0.46-0.66-1.11-0.66-1.94c0-0.86,0.22-1.53,0.67-2.01c0.44-0.48,1.02-0.71,1.73-0.71
			c0.68,0,1.24,0.23,1.68,0.7s0.65,1.12,0.65,1.97c0,0.05,0,0.13,0,0.23h-3.82c0.03,0.56,0.19,0.99,0.48,1.29
			c0.29,0.3,0.64,0.45,1.07,0.45c0.32,0,0.59-0.08,0.81-0.25C79.21,46.91,79.39,46.64,79.52,46.27z M76.67,44.87h2.86
			c-0.04-0.43-0.15-0.75-0.33-0.97c-0.28-0.33-0.63-0.5-1.08-0.5c-0.4,0-0.73,0.13-1.01,0.4C76.85,44.07,76.7,44.42,76.67,44.87z"/>
		<path class="st0" d="M84.85,46.05l0.85,0.11c-0.09,0.59-0.33,1.05-0.72,1.38c-0.38,0.33-0.86,0.5-1.42,0.5
			c-0.7,0-1.26-0.23-1.69-0.69c-0.43-0.46-0.64-1.11-0.64-1.97c0-0.55,0.09-1.04,0.27-1.45c0.18-0.41,0.46-0.73,0.84-0.93
			c0.37-0.21,0.78-0.31,1.22-0.31c0.56,0,1.01,0.14,1.36,0.42c0.35,0.28,0.58,0.68,0.68,1.2l-0.84,0.13
			c-0.08-0.34-0.22-0.6-0.43-0.78c-0.2-0.17-0.45-0.26-0.74-0.26c-0.44,0-0.79,0.16-1.07,0.47c-0.27,0.31-0.41,0.81-0.41,1.49
			c0,0.69,0.13,1.19,0.4,1.5c0.26,0.31,0.61,0.47,1.03,0.47c0.34,0,0.63-0.1,0.85-0.31C84.64,46.8,84.79,46.48,84.85,46.05z"/>
		<path class="st0" d="M86.44,47.92v-7.07h0.87v2.54c0.41-0.47,0.92-0.7,1.53-0.7c0.38,0,0.71,0.07,0.99,0.22
			c0.28,0.15,0.48,0.36,0.6,0.62c0.12,0.26,0.18,0.65,0.18,1.15v3.25h-0.87v-3.25c0-0.43-0.09-0.75-0.28-0.95
			c-0.19-0.2-0.45-0.3-0.8-0.3c-0.26,0-0.5,0.07-0.73,0.2c-0.23,0.13-0.39,0.31-0.48,0.54c-0.1,0.23-0.14,0.54-0.14,0.95v2.8H86.44z
			"/>
		<path class="st0" d="M94.68,49.88V42.8h0.79v0.67c0.19-0.26,0.4-0.46,0.63-0.59c0.23-0.13,0.52-0.2,0.85-0.2
			c0.44,0,0.82,0.11,1.16,0.34c0.33,0.23,0.59,0.54,0.76,0.95c0.17,0.41,0.26,0.86,0.26,1.35c0,0.52-0.09,1-0.28,1.42
			c-0.19,0.42-0.46,0.74-0.82,0.96c-0.36,0.22-0.74,0.34-1.13,0.34c-0.29,0-0.55-0.06-0.78-0.18c-0.23-0.12-0.42-0.28-0.57-0.46
			v2.49H94.68z M95.46,45.39c0,0.66,0.13,1.15,0.4,1.46c0.27,0.32,0.59,0.47,0.97,0.47c0.39,0,0.72-0.16,0.99-0.49
			c0.27-0.33,0.41-0.83,0.41-1.52c0-0.65-0.13-1.14-0.4-1.47c-0.27-0.32-0.59-0.49-0.96-0.49c-0.37,0-0.7,0.17-0.98,0.52
			C95.61,44.23,95.46,44.73,95.46,45.39z"/>
		<path class="st0" d="M100.15,47.92v-7.07h0.87v7.07H100.15z"/>
		<path class="st0" d="M105.71,47.29c-0.32,0.27-0.63,0.47-0.93,0.58c-0.3,0.11-0.62,0.17-0.96,0.17c-0.56,0-1-0.14-1.3-0.41
			c-0.3-0.27-0.45-0.63-0.45-1.05c0-0.25,0.06-0.48,0.17-0.69c0.11-0.21,0.26-0.37,0.45-0.5c0.18-0.13,0.39-0.22,0.62-0.28
			c0.17-0.04,0.43-0.09,0.77-0.13c0.7-0.08,1.22-0.18,1.55-0.3c0-0.12,0-0.19,0-0.23c0-0.35-0.08-0.6-0.25-0.75
			c-0.22-0.2-0.55-0.29-0.99-0.29c-0.41,0-0.71,0.07-0.9,0.21c-0.19,0.14-0.34,0.4-0.43,0.76l-0.85-0.12
			c0.08-0.36,0.2-0.66,0.38-0.88c0.18-0.22,0.43-0.4,0.77-0.52c0.33-0.12,0.72-0.18,1.16-0.18c0.44,0,0.79,0.05,1.07,0.15
			c0.27,0.1,0.47,0.23,0.6,0.39c0.13,0.16,0.22,0.35,0.27,0.59c0.03,0.15,0.04,0.41,0.04,0.8v1.16c0,0.81,0.02,1.32,0.06,1.53
			c0.04,0.21,0.11,0.42,0.22,0.61h-0.91C105.79,47.74,105.73,47.53,105.71,47.29z M105.63,45.35c-0.32,0.13-0.79,0.24-1.42,0.33
			c-0.36,0.05-0.61,0.11-0.76,0.17c-0.15,0.06-0.26,0.16-0.34,0.28c-0.08,0.12-0.12,0.26-0.12,0.41c0,0.23,0.09,0.42,0.26,0.58
			c0.18,0.15,0.43,0.23,0.77,0.23c0.33,0,0.63-0.07,0.89-0.22c0.26-0.15,0.45-0.35,0.57-0.6c0.09-0.2,0.14-0.49,0.14-0.87V45.35z"/>
		<path class="st0" d="M107.51,46.39l0.86-0.14c0.05,0.34,0.18,0.61,0.4,0.79c0.22,0.18,0.53,0.27,0.92,0.27
			c0.4,0,0.69-0.08,0.89-0.24c0.19-0.16,0.29-0.35,0.29-0.57c0-0.2-0.09-0.35-0.26-0.46c-0.12-0.08-0.41-0.18-0.89-0.29
			c-0.64-0.16-1.08-0.3-1.32-0.42c-0.25-0.12-0.43-0.28-0.56-0.49c-0.13-0.21-0.19-0.44-0.19-0.69c0-0.23,0.05-0.44,0.16-0.63
			s0.25-0.36,0.43-0.48c0.14-0.1,0.32-0.18,0.55-0.25c0.23-0.07,0.48-0.1,0.75-0.1c0.4,0,0.75,0.06,1.06,0.17
			c0.3,0.12,0.53,0.27,0.67,0.47c0.14,0.2,0.24,0.46,0.3,0.79l-0.85,0.12c-0.04-0.26-0.15-0.47-0.34-0.62
			c-0.18-0.15-0.45-0.22-0.78-0.22c-0.4,0-0.68,0.07-0.85,0.2c-0.17,0.13-0.26,0.29-0.26,0.46c0,0.11,0.04,0.21,0.11,0.3
			c0.07,0.09,0.18,0.17,0.33,0.23c0.09,0.03,0.34,0.11,0.77,0.22c0.61,0.16,1.04,0.3,1.29,0.4c0.24,0.1,0.43,0.26,0.57,0.46
			c0.14,0.2,0.21,0.45,0.21,0.74c0,0.29-0.08,0.56-0.25,0.82c-0.17,0.26-0.41,0.45-0.73,0.59c-0.32,0.14-0.68,0.21-1.08,0.21
			c-0.67,0-1.17-0.14-1.52-0.41C107.83,47.35,107.61,46.94,107.51,46.39z"/>
		<path class="st0" d="M114.69,47.15l0.13,0.77c-0.24,0.05-0.46,0.08-0.66,0.08c-0.32,0-0.56-0.05-0.73-0.15
			c-0.17-0.1-0.3-0.23-0.37-0.39c-0.07-0.16-0.11-0.5-0.11-1.02v-2.95h-0.64V42.8h0.64v-1.27l0.86-0.52v1.79h0.87v0.68h-0.87v2.99
			c0,0.25,0.02,0.41,0.05,0.48c0.03,0.07,0.08,0.13,0.15,0.17c0.07,0.04,0.17,0.06,0.3,0.06C114.41,47.18,114.53,47.17,114.69,47.15
			z"/>
		<path class="st0" d="M115.54,41.85v-1h0.87v1H115.54z M115.54,47.92V42.8h0.87v5.12H115.54z"/>
		<path class="st0" d="M121.08,46.05l0.85,0.11c-0.09,0.59-0.33,1.05-0.72,1.38c-0.38,0.33-0.86,0.5-1.42,0.5
			c-0.7,0-1.26-0.23-1.69-0.69c-0.43-0.46-0.64-1.11-0.64-1.97c0-0.55,0.09-1.04,0.27-1.45c0.18-0.41,0.46-0.73,0.84-0.93
			c0.37-0.21,0.78-0.31,1.22-0.31c0.56,0,1.01,0.14,1.36,0.42c0.35,0.28,0.58,0.68,0.68,1.2L121,44.44
			c-0.08-0.34-0.22-0.6-0.43-0.78c-0.2-0.17-0.45-0.26-0.74-0.26c-0.44,0-0.79,0.16-1.07,0.47c-0.27,0.31-0.41,0.81-0.41,1.49
			c0,0.69,0.13,1.19,0.4,1.5c0.26,0.31,0.61,0.47,1.03,0.47c0.34,0,0.63-0.1,0.85-0.31C120.87,46.8,121.01,46.48,121.08,46.05z"/>
		<path class="st0" d="M128.76,46.05l0.85,0.11c-0.09,0.59-0.33,1.05-0.72,1.38c-0.38,0.33-0.86,0.5-1.42,0.5
			c-0.7,0-1.26-0.23-1.69-0.69c-0.43-0.46-0.64-1.11-0.64-1.97c0-0.55,0.09-1.04,0.27-1.45c0.18-0.41,0.46-0.73,0.84-0.93
			c0.37-0.21,0.78-0.31,1.22-0.31c0.56,0,1.01,0.14,1.36,0.42c0.35,0.28,0.58,0.68,0.68,1.2l-0.84,0.13
			c-0.08-0.34-0.22-0.6-0.43-0.78c-0.2-0.17-0.45-0.26-0.74-0.26c-0.44,0-0.79,0.16-1.07,0.47c-0.27,0.31-0.41,0.81-0.41,1.49
			c0,0.69,0.13,1.19,0.4,1.5c0.26,0.31,0.61,0.47,1.03,0.47c0.34,0,0.63-0.1,0.85-0.31C128.55,46.8,128.7,46.48,128.76,46.05z"/>
		<path class="st0" d="M133.86,46.27l0.9,0.11c-0.14,0.52-0.4,0.93-0.79,1.22c-0.38,0.29-0.87,0.43-1.47,0.43
			c-0.75,0-1.34-0.23-1.78-0.69c-0.44-0.46-0.66-1.11-0.66-1.94c0-0.86,0.22-1.53,0.67-2.01c0.44-0.48,1.02-0.71,1.73-0.71
			c0.68,0,1.24,0.23,1.68,0.7s0.65,1.12,0.65,1.97c0,0.05,0,0.13,0,0.23h-3.82c0.03,0.56,0.19,0.99,0.48,1.29
			c0.29,0.3,0.64,0.45,1.07,0.45c0.32,0,0.59-0.08,0.81-0.25C133.55,46.91,133.73,46.64,133.86,46.27z M131.01,44.87h2.86
			c-0.04-0.43-0.15-0.75-0.33-0.97c-0.28-0.33-0.63-0.5-1.08-0.5c-0.4,0-0.73,0.13-1.01,0.4C131.19,44.07,131.04,44.42,131.01,44.87
			z"/>
		<path class="st0" d="M135.85,47.92V42.8h0.78v0.73c0.38-0.56,0.92-0.84,1.63-0.84c0.31,0,0.59,0.06,0.85,0.17
			c0.26,0.11,0.45,0.26,0.58,0.44c0.13,0.18,0.22,0.39,0.27,0.64c0.03,0.16,0.05,0.44,0.05,0.84v3.15h-0.87v-3.12
			c0-0.35-0.03-0.62-0.1-0.79c-0.07-0.18-0.19-0.31-0.36-0.42c-0.17-0.1-0.37-0.16-0.61-0.16c-0.37,0-0.69,0.12-0.96,0.35
			c-0.27,0.23-0.4,0.68-0.4,1.34v2.8H135.85z"/>
		<path class="st0" d="M143.23,47.15l0.13,0.77c-0.24,0.05-0.46,0.08-0.66,0.08c-0.32,0-0.56-0.05-0.73-0.15
			c-0.17-0.1-0.3-0.23-0.37-0.39c-0.07-0.16-0.11-0.5-0.11-1.02v-2.95h-0.64V42.8h0.64v-1.27l0.86-0.52v1.79h0.87v0.68h-0.87v2.99
			c0,0.25,0.02,0.41,0.05,0.48c0.03,0.07,0.08,0.13,0.15,0.17c0.07,0.04,0.17,0.06,0.3,0.06C142.95,47.18,143.08,47.17,143.23,47.15
			z"/>
		<path class="st0" d="M147.59,46.27l0.9,0.11c-0.14,0.52-0.4,0.93-0.79,1.22c-0.38,0.29-0.87,0.43-1.47,0.43
			c-0.75,0-1.34-0.23-1.78-0.69c-0.44-0.46-0.66-1.11-0.66-1.94c0-0.86,0.22-1.53,0.67-2.01c0.44-0.48,1.02-0.71,1.73-0.71
			c0.68,0,1.24,0.23,1.68,0.7s0.65,1.12,0.65,1.97c0,0.05,0,0.13,0,0.23h-3.82c0.03,0.56,0.19,0.99,0.48,1.29s0.64,0.45,1.07,0.45
			c0.32,0,0.59-0.08,0.81-0.25C147.28,46.91,147.46,46.64,147.59,46.27z M144.74,44.87h2.86c-0.04-0.43-0.15-0.75-0.33-0.97
			c-0.28-0.33-0.63-0.5-1.08-0.5c-0.4,0-0.73,0.13-1.01,0.4C144.92,44.07,144.77,44.42,144.74,44.87z"/>
		<path class="st0" d="M149.56,47.92V42.8h0.78v0.78c0.2-0.36,0.38-0.6,0.55-0.72c0.17-0.12,0.35-0.17,0.56-0.17
			c0.29,0,0.59,0.09,0.89,0.28l-0.3,0.81c-0.21-0.13-0.42-0.19-0.64-0.19c-0.19,0-0.36,0.06-0.51,0.17
			c-0.15,0.11-0.26,0.27-0.32,0.48c-0.1,0.31-0.14,0.65-0.14,1.01v2.68H149.56z"/>
	</g>
</g>
</svg>
