<?xml version="1.0" encoding="utf-8"?>
<!-- Generator: Adobe Illustrator 25.4.1, SVG Export Plug-In . SVG Version: 6.00 Build 0)  -->
<svg version="1.1" id="Layer_1" xmlns="http://www.w3.org/2000/svg" xmlns:xlink="http://www.w3.org/1999/xlink" x="0px" y="0px"
	 viewBox="0 0 179 50" style="enable-background:new 0 0 179 50;" xml:space="preserve">
<style type="text/css">
	.st0{fill:#ED3032;}
	.st1{fill:#212121;}
	.st2{fill:#58585A;}
	.st3{fill:#59595B;}
	.st4{fill:#5A5A5C;}
	.st5{fill:#F7ACAD;}
</style>
<g>
	<g>
		<path class="st0" d="M54.2,0c1.1,1.7,1.2,3.7,1.3,5.6c0.6,9.2-1,17.9-5.9,25.9c-1.2,1.9-2.6,3.7-4.3,5.5c2.5-10.9,5-21.5,7.5-32.1
			C52.9,3.1,53.1,1.5,54,0C54,0,54.1,0,54.2,0z"/>
		<path class="st1" d="M76.2,24.2c0-3,0-5.9,0-8.9c0-0.7-0.2-0.9-0.8-0.8c-1.2,0.1-2.4,0.1-3.6,0c-0.6,0-0.8,0.1-0.8,0.8
			c0.1,1.9,0,3.7,0,5.6c0,0.6-0.1,0.8-0.8,0.8c-1.7,0-3.4,0-5.1,0c-0.7,0-0.8-0.2-0.7-0.8c0-1.9,0-3.7,0-5.6c0-0.6-0.1-0.8-0.7-0.7
			c-1.3,0-2.5,0-3.8,0c-0.5,0-0.7,0.1-0.7,0.6c0,6,0,12,0,18c0,0.6,0.2,0.7,0.7,0.6c1.3,0,2.5,0,3.8,0c0.6,0,0.7-0.2,0.7-0.7
			c0-2.2,0-4.3,0-6.5c0-0.5,0.1-0.7,0.7-0.7c1.7,0,3.4,0,5.1,0c0.8,0,0.9,0.2,0.8,0.9c0,2.1,0,4.1,0,6.2c0,0.7,0.2,0.8,0.8,0.8
			c1.2,0,2.3-0.1,3.5,0c0.7,0,0.9-0.2,0.9-0.9C76.2,30,76.2,27.1,76.2,24.2z M75.7,33.5c-0.1,0-0.1-0.1-0.1-0.1s0.1-0.1,0.1-0.1
			V33.5z"/>
		<path class="st1" d="M75.7,33.3v0.2C75.6,33.5,75.6,33.4,75.7,33.3C75.6,33.3,75.6,33.3,75.7,33.3z"/>
		<path class="st1" d="M93.2,19.5c-1-3.4-2.5-4.7-6.1-4.9c-3.2-0.1-6.4-0.1-9.5-0.1c-0.6,0-0.7,0.2-0.7,0.7c0,6,0,12,0,18
			c0,0.6,0.2,0.7,0.8,0.7c1.3,0,2.6,0,3.8,0c0.6,0,0.8-0.2,0.8-0.8c0-1.8,0-3.7,0-5.5c0,0,0.1,0,0.1-0.1c0,0,0-0.1-0.1-0.1
			c0.1-0.7,0.6-0.3,0.9-0.3c2.6-0.1,5.3,0.2,7.6-1.3c0.7-0.1,1-0.7,1.4-1.1C93.5,23,93.3,21.2,93.2,19.5z M86.4,22.5
			c-1.2,0.3-2.5,0.2-3.7,0.2c-0.4,0-0.5-0.1-0.4-0.5c0-0.5,0-1.1,0-1.6c0-1.9,0-2,2-1.9c0.7,0,1.4,0,2.1,0.1c1,0.1,1.6,0.9,1.6,1.8
			C88,21.6,87.4,22.2,86.4,22.5z"/>
		<path class="st1" d="M109.9,27.9c-1.1,3.4-3.4,5.4-6.9,6c-3.3,0.5-6.4,0-9-2.4c-1.4-1.3-2.3-2.9-2.7-4.8c-0.1-0.2-0.1-0.5,0.1-0.7
			c0.1-0.4,0.4-0.6,0.6-0.9c1-0.9,1.2-2.1,1.8-3.1c0.4-1.4,0.2-2.7-0.3-4c-0.2-0.5-0.1-0.8,0.3-1.2c3.3-3.2,9.8-3.6,13.5-0.8
			c1.3,1,2.1,2.4,2.6,4c0.1,0.4,0.1,0.6-0.4,0.7c-1.4,0.3-2.8,0.6-4.2,0.9c-0.4,0.1-0.6,0-0.7-0.4c-0.6-1.8-1.9-2.7-3.8-2.6
			c-1.9,0-3.5,1-4,2.8c-0.6,1.9-0.5,3.8,0,5.7c0.5,1.8,2,2.7,3.9,2.7c1.9,0,3.3-0.9,3.8-2.8c0.3-1.1,0.7-1.2,1.6-0.9
			c1,0.4,2.1,0.7,3.2,0.9C109.9,27.1,110.1,27.3,109.9,27.9z"/>
		<path class="st2" d="M122,26.7c0.4,0,0.8,0,1.2,0c1.4,0,1.4,0,1.2,1.4c-0.3,2.8-2.3,4.4-5.2,4.1c-2.8-0.3-4.7-2.4-4.5-5.1
			c0.2-2.7,2.4-4.6,5.2-4.5c1.4,0.1,2.6,0.5,3.5,1.6c0.3,0.4,0.3,0.6-0.2,0.8c-0.4,0.1-0.7,0.3-1.1,0.5c-0.4,0.2-0.6,0.2-0.9-0.1
			c-0.7-0.7-1.6-0.9-2.5-0.5c-0.9,0.4-1.3,1.1-1.5,2.1c-0.3,2.4,1.3,3.9,3.4,3.1c0.2-0.1,0.5-0.2,0.7-0.4c0.3-0.2,0.6-0.5,0.5-0.9
			s-0.6-0.1-0.9-0.2c-0.2,0-0.4,0-0.6,0c-0.9,0.1-0.9-0.4-0.9-1c0-0.7,0.1-1.1,0.9-1C120.9,26.7,121.5,26.7,122,26.7z"/>
		<path class="st2" d="M152.9,26.1c-1.1-1-2.6-0.9-4,0.3c-0.1-1.4-1-0.7-1.5-0.8c-0.4-0.1-0.6,0.1-0.6,0.5c0,2.7,0,5.3,0,8
			c0,1,0.8,0.5,1.2,0.6c0.4,0,1,0.2,1-0.6c0-0.9,0-1.8,0-2.8c1.7,1.2,3.2,1.1,4.2-0.1C154.3,29.9,154.1,27.3,152.9,26.1z
			 M150.1,30.4c-0.9,0-1.4-0.6-1.4-1.6c0-1,0.5-1.5,1.4-1.5c0.9,0,1.5,0.7,1.4,1.6C151.6,29.8,151,30.4,150.1,30.4z"/>
		<path class="st2" d="M134.2,25.4c-2,0-3.5,1.5-3.5,3.4c0,1.9,1.6,3.5,3.6,3.4c2,0,3.6-1.6,3.5-3.5
			C137.8,26.9,136.2,25.4,134.2,25.4z M134.3,30.3c-0.8,0-1.3-0.6-1.3-1.5c0-0.9,0.6-1.5,1.3-1.5c0.8,0,1.3,0.6,1.3,1.6
			C135.6,29.8,135.1,30.3,134.3,30.3z"/>
		<path class="st3" d="M145.4,28c0,0.4,0,0.7,0,1.1c0,1.3-0.3,2.4-1.6,2.9c-1.4,0.5-2.8,0.5-4.1-0.4c-0.6-0.5-0.9-1.2-0.9-1.9
			c0-1.1,0-2.2,0-3.3c0-0.5,0.1-0.6,0.6-0.6c1.6-0.1,1.6-0.1,1.6,1.4c0,0.8,0,1.5,0,2.3c0,0.7,0.3,1.1,1.1,1.2c0.7,0,1-0.5,1.1-1.1
			c0.1-1,0.1-2,0-3c0-0.6,0.1-0.8,0.8-0.8c1.8,0.1,1.4-0.1,1.4,1.4C145.4,27.4,145.4,27.7,145.4,28C145.4,28,145.4,28,145.4,28z"/>
		<path class="st4" d="M127.7,26.9c0.7-1,1.4-1.5,2.3-1.4c0.4,0,0.6,0.1,0.5,0.5c-0.1,0.8,0.1,1.7-1.3,1.5c-0.8-0.1-1.2,0.6-1.3,1.4
			c-0.1,0.8-0.1,1.5,0,2.3c0,0.6-0.2,0.8-0.8,0.8c-1.8-0.1-1.5,0.1-1.5-1.5c0-1.3,0-2.5,0-3.8c0-0.5-0.2-1.2,0.7-1.1
			C126.9,25.7,128,25.1,127.7,26.9z"/>
		<path class="st5" d="M54,0c-0.4,1.6-0.8,3.2-1.2,4.8C48.5,5,44.9,6.7,41.6,9.3c-4,3.1-6.9,6.9-9.3,11.2c-1.8,3.2-3.1,6.5-4.2,10
			c-0.2,0.6-0.4,1.3-0.5,2c-0.5,3-2.3,12.3-2.4,12.9c0-1.1,1.2-13.3,1.7-15s1.1-4.8,1.9-7c1.6-4.6,3.8-8.9,6.8-12.6
			c3.8-4.8,8.4-8.4,14.3-10.1C52.1,0,54,0,54,0z"/>
		<path class="st1" d="M75.7,33.3v0.2C75.6,33.5,75.6,33.4,75.7,33.3C75.6,33.3,75.6,33.3,75.7,33.3z"/>
		<path class="st1" d="M75.7,33.3v0.2C75.6,33.5,75.6,33.4,75.7,33.3C75.6,33.3,75.6,33.3,75.7,33.3z"/>
	</g>
	<g>
		<path class="st0" d="M49.8,47.9v-7.1h0.9v2.9h3.7v-2.9h0.9v7.1h-0.9v-3.3h-3.7v3.3H49.8z"/>
		<path class="st0" d="M56.8,41.8v-1h0.9v1H56.8z M56.8,47.9v-5.1h0.9v5.1H56.8z"/>
		<path class="st0" d="M58.8,48.3l0.8,0.1c0,0.3,0.1,0.5,0.3,0.6c0.2,0.2,0.5,0.2,0.9,0.2c0.4,0,0.7-0.1,0.9-0.2s0.4-0.4,0.4-0.7
			c0-0.2,0.1-0.5,0.1-1.1c-0.4,0.5-0.8,0.7-1.4,0.7c-0.7,0-1.2-0.2-1.6-0.8c-0.4-0.5-0.6-1.1-0.6-1.8c0-0.5,0.1-0.9,0.3-1.3
			s0.4-0.7,0.8-1c0.3-0.2,0.7-0.3,1.2-0.3c0.6,0,1.1,0.2,1.5,0.7v-0.6h0.8v4.4c0,0.8-0.1,1.4-0.2,1.7c-0.2,0.3-0.4,0.6-0.8,0.8
			S61.4,50,60.9,50c-0.6,0-1.1-0.1-1.5-0.4C59,49.3,58.8,48.9,58.8,48.3z M59.5,45.3c0,0.7,0.1,1.2,0.4,1.5s0.6,0.5,1,0.5
			s0.7-0.2,1-0.5c0.3-0.3,0.4-0.8,0.4-1.4c0-0.6-0.1-1.1-0.4-1.4s-0.6-0.5-1-0.5c-0.4,0-0.7,0.2-1,0.5
			C59.7,44.2,59.5,44.7,59.5,45.3z"/>
		<path class="st0" d="M64.5,47.9v-7.1h0.9v2.5c0.4-0.5,0.9-0.7,1.5-0.7c0.4,0,0.7,0.1,1,0.2s0.5,0.4,0.6,0.6
			c0.1,0.3,0.2,0.7,0.2,1.2v3.2h-0.9v-3.2c0-0.4-0.1-0.8-0.3-1s-0.4-0.3-0.8-0.3c-0.3,0-0.5,0.1-0.7,0.2s-0.4,0.3-0.5,0.5
			c-0.1,0.2-0.1,0.5-0.1,1v2.8C65.4,47.9,64.5,47.9,64.5,47.9z"/>
		<path class="st0" d="M69.6,45.8v-0.9h2.7v0.9H69.6z"/>
		<path class="st0" d="M75.2,47.2l0.1,0.8c-0.2,0-0.5,0.1-0.7,0.1c-0.3,0-0.6,0-0.7-0.2c-0.2-0.1-0.3-0.2-0.4-0.4s-0.1-0.5-0.1-1v-3
			h-0.6v-0.7h0.6v-1.3l0.9-0.5v1.8h0.9v0.7h-0.9v3c0,0.2,0,0.4,0.1,0.5c0,0.1,0.1,0.1,0.2,0.2c0.1,0,0.2,0.1,0.3,0.1
			C74.9,47.2,75,47.2,75.2,47.2z"/>
		<path class="st0" d="M79.5,46.3l0.9,0.1c-0.1,0.5-0.4,0.9-0.8,1.2c-0.4,0.3-0.9,0.4-1.5,0.4c-0.8,0-1.3-0.2-1.8-0.7
			s-0.7-1.1-0.7-1.9c0-0.9,0.2-1.5,0.7-2c0.4-0.5,1-0.7,1.7-0.7c0.7,0,1.2,0.2,1.7,0.7s0.7,1.1,0.7,2c0,0,0,0.1,0,0.2h-3.8
			c0,0.6,0.2,1,0.5,1.3s0.6,0.5,1.1,0.5c0.3,0,0.6-0.1,0.8-0.2C79.2,46.9,79.4,46.6,79.5,46.3z M76.7,44.9h2.9c0-0.4-0.2-0.8-0.3-1
			c-0.3-0.3-0.6-0.5-1.1-0.5c-0.4,0-0.7,0.1-1,0.4C76.8,44.1,76.7,44.4,76.7,44.9z"/>
		<path class="st0" d="M84.8,46l0.8,0.1c-0.1,0.6-0.3,1-0.7,1.4c-0.4,0.3-0.9,0.5-1.4,0.5c-0.7,0-1.3-0.2-1.7-0.7s-0.6-1.1-0.6-2
			c0-0.5,0.1-1,0.3-1.5s0.5-0.7,0.8-0.9c0.4-0.2,0.8-0.3,1.2-0.3c0.6,0,1,0.1,1.4,0.4s0.6,0.7,0.7,1.2l-0.8,0.1
			c-0.1-0.3-0.2-0.6-0.4-0.8c-0.2-0.2-0.4-0.3-0.7-0.3c-0.4,0-0.8,0.2-1.1,0.5c-0.3,0.3-0.4,0.8-0.4,1.5c0,0.7,0.1,1.2,0.4,1.5
			c0.3,0.3,0.6,0.5,1,0.5c0.3,0,0.6-0.1,0.8-0.3C84.6,46.8,84.8,46.5,84.8,46z"/>
		<path class="st0" d="M86.4,47.9v-7.1h0.9v2.5c0.4-0.5,0.9-0.7,1.5-0.7c0.4,0,0.7,0.1,1,0.2s0.5,0.4,0.6,0.6
			c0.1,0.3,0.2,0.7,0.2,1.2v3.2h-0.9v-3.2c0-0.4-0.1-0.8-0.3-1s-0.4-0.3-0.8-0.3c-0.3,0-0.5,0.1-0.7,0.2s-0.4,0.3-0.5,0.5
			c-0.1,0.2-0.1,0.5-0.1,1v2.8C87.3,47.9,86.4,47.9,86.4,47.9z"/>
		<path class="st0" d="M94.7,49.9v-7.1h0.8v0.7c0.2-0.3,0.4-0.5,0.6-0.6c0.2-0.1,0.5-0.2,0.8-0.2c0.4,0,0.8,0.1,1.2,0.3
			c0.3,0.2,0.6,0.5,0.8,1c0.2,0.4,0.3,0.9,0.3,1.3c0,0.5-0.1,1-0.3,1.4s-0.5,0.7-0.8,1c-0.4,0.2-0.7,0.3-1.1,0.3
			c-0.3,0-0.6-0.1-0.8-0.2c-0.2-0.1-0.4-0.3-0.6-0.5v2.5L94.7,49.9L94.7,49.9z M95.5,45.4c0,0.7,0.1,1.2,0.4,1.5
			c0.3,0.3,0.6,0.5,1,0.5c0.4,0,0.7-0.2,1-0.5s0.4-0.8,0.4-1.5c0-0.7-0.1-1.1-0.4-1.5c-0.3-0.3-0.6-0.5-1-0.5s-0.7,0.2-1,0.5
			C95.6,44.2,95.5,44.7,95.5,45.4z"/>
		<path class="st0" d="M100.2,47.9v-7.1h0.9v7.1H100.2z"/>
		<path class="st0" d="M105.7,47.3c-0.3,0.3-0.6,0.5-0.9,0.6s-0.6,0.2-1,0.2c-0.6,0-1-0.1-1.3-0.4s-0.4-0.6-0.4-1
			c0-0.2,0.1-0.5,0.2-0.7s0.3-0.4,0.4-0.5c0.2-0.1,0.4-0.2,0.6-0.3c0.2,0,0.4-0.1,0.8-0.1c0.7-0.1,1.2-0.2,1.6-0.3
			c0-0.1,0-0.2,0-0.2c0-0.3-0.1-0.6-0.2-0.8c-0.2-0.2-0.6-0.3-1-0.3c-0.4,0-0.7,0.1-0.9,0.2s-0.3,0.4-0.4,0.8l-0.8-0.1
			c0.1-0.4,0.2-0.7,0.4-0.9s0.4-0.4,0.8-0.5c0.3-0.1,0.7-0.2,1.2-0.2s0.8,0,1.1,0.2c0.3,0.1,0.5,0.2,0.6,0.4s0.2,0.3,0.3,0.6
			c0,0.2,0,0.4,0,0.8v1.2c0,0.8,0,1.3,0.1,1.5s0.1,0.4,0.2,0.6h-0.9C105.8,47.7,105.7,47.5,105.7,47.3z M105.6,45.3
			c-0.3,0.1-0.8,0.2-1.4,0.3c-0.4,0-0.6,0.1-0.8,0.2c-0.2,0.1-0.3,0.2-0.3,0.3c-0.1,0.1-0.1,0.3-0.1,0.4c0,0.2,0.1,0.4,0.3,0.6
			c0.2,0.2,0.4,0.2,0.8,0.2c0.3,0,0.6-0.1,0.9-0.2s0.4-0.3,0.6-0.6c0.1-0.2,0.1-0.5,0.1-0.9L105.6,45.3L105.6,45.3z"/>
		<path class="st0" d="M107.5,46.4l0.9-0.1c0.1,0.3,0.2,0.6,0.4,0.8s0.5,0.3,0.9,0.3c0.4,0,0.7-0.1,0.9-0.2c0.2-0.2,0.3-0.3,0.3-0.6
			c0-0.2-0.1-0.3-0.3-0.5c-0.1-0.1-0.4-0.2-0.9-0.3c-0.6-0.2-1.1-0.3-1.3-0.4c-0.2-0.1-0.4-0.3-0.6-0.5c-0.1-0.2-0.2-0.4-0.2-0.7
			c0-0.2,0.1-0.4,0.2-0.6s0.2-0.4,0.4-0.5c0.1-0.1,0.3-0.2,0.6-0.2s0.5-0.1,0.8-0.1c0.4,0,0.8,0.1,1.1,0.2c0.3,0.1,0.5,0.3,0.7,0.5
			s0.2,0.5,0.3,0.8l-0.8,0.1c0-0.3-0.2-0.5-0.3-0.6c-0.2-0.2-0.4-0.2-0.8-0.2c-0.4,0-0.7,0.1-0.8,0.2s-0.3,0.3-0.3,0.5
			c0,0.1,0,0.2,0.1,0.3s0.2,0.2,0.3,0.2c0.1,0,0.3,0.1,0.8,0.2c0.6,0.2,1,0.3,1.3,0.4c0.2,0.1,0.4,0.3,0.6,0.5s0.2,0.5,0.2,0.7
			s-0.1,0.6-0.2,0.8s-0.4,0.5-0.7,0.6s-0.7,0.2-1.1,0.2c-0.7,0-1.2-0.1-1.5-0.4C107.8,47.3,107.6,46.9,107.5,46.4z"/>
		<path class="st0" d="M114.7,47.2l0.1,0.8c-0.2,0-0.5,0.1-0.7,0.1c-0.3,0-0.6,0-0.7-0.2c-0.2-0.1-0.3-0.2-0.4-0.4s-0.1-0.5-0.1-1
			v-3h-0.6v-0.7h0.6v-1.3l0.9-0.5v1.8h0.9v0.7h-0.9v3c0,0.2,0,0.4,0.1,0.5c0,0.1,0.1,0.1,0.2,0.2c0.1,0,0.2,0.1,0.3,0.1
			C114.4,47.2,114.5,47.2,114.7,47.2z"/>
		<path class="st0" d="M115.5,41.8v-1h0.9v1H115.5z M115.5,47.9v-5.1h0.9v5.1H115.5z"/>
		<path class="st0" d="M121.1,46l0.8,0.1c-0.1,0.6-0.3,1-0.7,1.4c-0.4,0.3-0.9,0.5-1.4,0.5c-0.7,0-1.3-0.2-1.7-0.7s-0.6-1.1-0.6-2
			c0-0.5,0.1-1,0.3-1.5s0.5-0.7,0.8-0.9c0.4-0.2,0.8-0.3,1.2-0.3c0.6,0,1,0.1,1.4,0.4s0.6,0.7,0.7,1.2l-0.8,0.1
			c-0.1-0.3-0.2-0.6-0.4-0.8c-0.2-0.2-0.4-0.3-0.7-0.3c-0.4,0-0.8,0.2-1.1,0.5c-0.3,0.3-0.4,0.8-0.4,1.5c0,0.7,0.1,1.2,0.4,1.5
			c0.3,0.3,0.6,0.5,1,0.5c0.3,0,0.6-0.1,0.8-0.3C120.9,46.8,121,46.5,121.1,46z"/>
		<path class="st0" d="M128.8,46l0.9,0.1c-0.1,0.6-0.3,1-0.7,1.4c-0.4,0.3-0.9,0.5-1.4,0.5c-0.7,0-1.3-0.2-1.7-0.7s-0.6-1.1-0.6-2
			c0-0.5,0.1-1,0.3-1.5s0.5-0.7,0.8-0.9c0.4-0.2,0.8-0.3,1.2-0.3c0.6,0,1,0.1,1.4,0.4c0.4,0.3,0.6,0.7,0.7,1.2l-0.8,0.1
			c-0.1-0.3-0.2-0.6-0.4-0.8c-0.2-0.2-0.4-0.3-0.7-0.3c-0.4,0-0.8,0.2-1.1,0.5c-0.3,0.3-0.4,0.8-0.4,1.5c0,0.7,0.1,1.2,0.4,1.5
			c0.3,0.3,0.6,0.5,1,0.5c0.3,0,0.6-0.1,0.8-0.3C128.6,46.8,128.7,46.5,128.8,46z"/>
		<path class="st0" d="M133.9,46.3l0.9,0.1c-0.1,0.5-0.4,0.9-0.8,1.2c-0.4,0.3-0.9,0.4-1.5,0.4c-0.8,0-1.3-0.2-1.8-0.7
			s-0.7-1.1-0.7-1.9c0-0.9,0.2-1.5,0.7-2c0.4-0.5,1-0.7,1.7-0.7c0.7,0,1.2,0.2,1.7,0.7s0.6,1.1,0.6,2c0,0,0,0.1,0,0.2H131
			c0,0.6,0.2,1,0.5,1.3s0.6,0.5,1.1,0.5c0.3,0,0.6-0.1,0.8-0.2C133.6,46.9,133.7,46.6,133.9,46.3z M131,44.9h2.9
			c0-0.4-0.1-0.8-0.3-1c-0.3-0.3-0.6-0.5-1.1-0.5c-0.4,0-0.7,0.1-1,0.4C131.2,44.1,131,44.4,131,44.9z"/>
		<path class="st0" d="M135.9,47.9v-5.1h0.8v0.7c0.4-0.6,0.9-0.8,1.6-0.8c0.3,0,0.6,0.1,0.9,0.2c0.3,0.1,0.4,0.3,0.6,0.4
			s0.2,0.4,0.3,0.6c0,0.2,0.1,0.4,0.1,0.8v3.2h-0.9v-3.1c0-0.3,0-0.6-0.1-0.8c-0.1-0.2-0.2-0.3-0.4-0.4c-0.2-0.1-0.4-0.2-0.6-0.2
			c-0.4,0-0.7,0.1-1,0.3s-0.4,0.7-0.4,1.3v2.8L135.9,47.9L135.9,47.9z"/>
		<path class="st0" d="M143.2,47.2l0.1,0.8c-0.2,0-0.5,0.1-0.7,0.1c-0.3,0-0.6,0-0.7-0.2c-0.2-0.1-0.3-0.2-0.4-0.4
			c-0.1-0.2-0.1-0.5-0.1-1v-3h-0.6v-0.7h0.6v-1.3l0.9-0.5v1.8h0.9v0.7h-0.9v3c0,0.2,0,0.4,0.1,0.5s0.1,0.1,0.1,0.2
			c0.1,0,0.2,0.1,0.3,0.1C142.9,47.2,143.1,47.2,143.2,47.2z"/>
		<path class="st0" d="M147.6,46.3l0.9,0.1c-0.1,0.5-0.4,0.9-0.8,1.2c-0.4,0.3-0.9,0.4-1.5,0.4c-0.8,0-1.3-0.2-1.8-0.7
			s-0.7-1.1-0.7-1.9c0-0.9,0.2-1.5,0.7-2c0.4-0.5,1-0.7,1.7-0.7c0.7,0,1.2,0.2,1.7,0.7s0.6,1.1,0.6,2c0,0,0,0.1,0,0.2h-3.8
			c0,0.6,0.2,1,0.5,1.3s0.6,0.5,1.1,0.5c0.3,0,0.6-0.1,0.8-0.2C147.3,46.9,147.5,46.6,147.6,46.3z M144.7,44.9h2.9
			c0-0.4-0.1-0.8-0.3-1c-0.3-0.3-0.6-0.5-1.1-0.5c-0.4,0-0.7,0.1-1,0.4C144.9,44.1,144.8,44.4,144.7,44.9z"/>
		<path class="st0" d="M149.6,47.9v-5.1h0.8v0.8c0.2-0.4,0.4-0.6,0.6-0.7c0.2-0.1,0.4-0.2,0.6-0.2c0.3,0,0.6,0.1,0.9,0.3l-0.3,0.8
			c-0.2-0.1-0.4-0.2-0.6-0.2c-0.2,0-0.4,0.1-0.5,0.2c-0.1,0.1-0.3,0.3-0.3,0.5c-0.1,0.3-0.1,0.7-0.1,1v2.7L149.6,47.9L149.6,47.9z"
			/>
	</g>
</g>
</svg>
